<svg width="39" height="39" viewBox="0 0 39 39" fill="none" xmlns="http://www.w3.org/2000/svg">
<g id="mingcute:user-4-fill" clip-path="url(#clip0_408_610)">
<g id="Group">
<path id="Vector" fill-rule="evenodd" clip-rule="evenodd" d="M19.5 3.25C10.5251 3.25 3.25 10.5251 3.25 19.5C3.25 28.4749 10.5251 35.75 19.5 35.75C28.4749 35.75 35.75 28.4749 35.75 19.5C35.75 10.5251 28.4749 3.25 19.5 3.25ZM13.8125 15.4375C13.8125 14.6906 13.9596 13.951 14.2454 13.261C14.5313 12.5709 14.9502 11.944 15.4783 11.4158C16.0065 10.8877 16.6334 10.4688 17.3235 10.1829C18.0135 9.89711 18.7531 9.75 19.5 9.75C20.2469 9.75 20.9865 9.89711 21.6765 10.1829C22.3666 10.4688 22.9935 10.8877 23.5217 11.4158C24.0498 11.944 24.4687 12.5709 24.7546 13.261C25.0404 13.951 25.1875 14.6906 25.1875 15.4375C25.1875 16.9459 24.5883 18.3926 23.5217 19.4592C22.4551 20.5258 21.0084 21.125 19.5 21.125C17.9916 21.125 16.5449 20.5258 15.4783 19.4592C14.4117 18.3926 13.8125 16.9459 13.8125 15.4375ZM29.6692 27.599C28.4528 29.1291 26.9064 30.3647 25.1455 31.2133C23.3846 32.062 21.4547 32.5018 19.5 32.5C17.5453 32.5018 15.6154 32.062 13.8545 31.2133C12.0936 30.3647 10.5472 29.1291 9.33075 27.599C11.9649 25.7091 15.5594 24.375 19.5 24.375C23.4406 24.375 27.0351 25.7091 29.6692 27.599Z" fill="#97A3C1"/>
</g>
</g>
<defs>
<clipPath id="clip0_408_610">
<rect width="39" height="39" fill="white"/>
</clipPath>
</defs>
</svg>
